<svg xmlns="http://www.w3.org/2000/svg" width="78" height="62" fill="none"><defs/><path fill="#fff" fill-rule="evenodd" d="M0 45.9a16.1 16.1 0 1132.3 0 16.1 16.1 0 01-32.3 0zM11 51a7.3 7.3 0 1010.3-10.3A7.3 7.3 0 0011 51zM60.9 46a8 8 0 100 16.1 8 8 0 000-16.1zm-5.1 8a5 5 0 1010.1 0 5 5 0 00-10.1 0z" clip-rule="evenodd"/><path fill="#fff" fill-rule="evenodd" d="M75.4 31.3L78 49.7S78.6 53 75 53h-2a12.2 12.2 0 00-24.3 0H38.5A23.4 23.4 0 003 26.4c0-3 0-13.9 2.3-20.2 0 0 1-2.6 3.5-3.2 2.3-.6 24.7-3 24.7-3s2.3 0 3.1 1.9l10.6 21.9L59 25v-5.3h4V14h3v12l5.8.6s3 .6 3.6 4.7zM16.1 19.8h7V6.2h-7v13.6zm17 0h-7V6.2h7v13.6zM49 36h4v-7h-4v7zm11 0h-4v-7h4v7zm3 0h4v-7h-4v7z" clip-rule="evenodd"/></svg>