<svg xmlns="http://www.w3.org/2000/svg" width="78" height="63" fill="none"><defs/><path fill="#fff" d="M26 63a7.5 7.5 0 100-15 7.5 7.5 0 000 15zM60 63a7.5 7.5 0 100-15 7.5 7.5 0 000 15z"/><path fill="#fff" fill-rule="evenodd" d="M11 0h53s14 14.8 14 33.7v15.2s-.2 4.1-3.1 4.1h-1.7a13.5 13.5 0 00-26.6 0h-7.4a13.5 13.5 0 00-26.5 0h-2S8 52.4 8 49.2V33.6l14.7-.8s5.5-.6 6.3-3.7L5.4 27.8a3.4 3.4 0 110-6.7h9.1l8.3-.5s8.2-.6 9-3.8h-.2L3.5 14.9a3.5 3.5 0 110-6.9H8V3.1S7.9 0 11 0zm41 9v15h15.8L62.1 9H52z" clip-rule="evenodd"/></svg>