<svg xmlns="http://www.w3.org/2000/svg" width="75" height="61" fill="none"><defs/><path fill="#fff" fill-rule="evenodd" d="M2.1 0C.1 0 0 2 0 2V18c0 2.9 2.9 3 2.9 3h9c2 0 1.6 1.3 1.6 1.3s-2.5 13-2.7 15.2c-.3 2.2-1.9 3.6-1.9 3.6l-3 1.7C5 43 5 44.9 5 44.9h31V44c0-1.4-6.5-3.1-9.1-3.4-2.6-.2-2.1-2-2.1-2l1-7.8h3l1.2-7.8h-3l.3-2.8 8.6-.1c5.8-.6 10-4 10-4v-12C41.3.7 34 0 34 0H2.2zm58.3 8h13.5c.5 0 1 1.1 1 2.5s-.5 2.5-1 2.5H60.4c-.6 2.3-2 3.9-3.8 3.9h-7.5V4h7.5c1.7 0 3.2 1.6 3.8 4zM6.9 61C5 61 5 59 5 59V48h31v11c0 1.8-2 2-2 2H7zM36 5c0-.6-.5-1-1-1H5a1 1 0 00-1 1c0 .5.5 1 1 1h30c.5 0 1-.5 1-1z" clip-rule="evenodd"/></svg>