<svg xmlns="http://www.w3.org/2000/svg" width="70" height="70" fill="none"><defs/><mask id="a" width="70" height="70" x="0" y="0" maskUnits="userSpaceOnUse"><path fill="#C4C4C4" d="M0 0h70v70H0z"/></mask><g mask="url(#a)"><path fill="#EE3643" d="M22.2-23l70.7 70.7-21.2 21.2L1-1.8z"/><path fill="#fff" d="M34.5 19.1l6.9-7 1 1-2.9 7 5-4.9.8 1-6.9 6.9-1-1 2.9-7-5 4.9-.8-.9zm5.3 5.4l7-7L50 21l-.7.7-2.5-2.5-2.3 2.3 2.2 2.2-.7.7L44 22l-2.6 2.6 2.5 2.4-.7.7-3.4-3.3zm5.1 5l5.8-8 .9.9-4.5 6.2 5.2-3 1 1-3 5.1 6.2-4.4 1 1-8.1 5.7-1.1-1 3-5.4-5.3 3-1.1-1z"/></g></svg>