<svg width="326" height="133" viewBox="0 0 326 133" fill="none" xmlns="http://www.w3.org/2000/svg">
<g opacity="0.3">
<path fill-rule="evenodd" clip-rule="evenodd" d="M163.458 12.044L167 15.586L165.586 17L162.044 13.458C160.782 14.421 159.21 15 157.5 15C153.358 15 150 11.6421 150 7.5C150 3.35786 153.358 0 157.5 0C161.642 0 165 3.35786 165 7.5C165 9.14309 164.458 10.7403 163.458 12.044ZM157.5 2C154.467 2 152 4.467 152 7.5C152.003 10.5362 154.464 12.9967 157.5 13C160.532 13 163 10.532 163 7.5C163 4.467 160.532 2 157.5 2Z" fill="white"/>
<path d="M20.83 92.965L22.919 95.064L5.13 112.947L22.977 130.886L20.887 132.985L0.952003 112.947L20.83 92.965Z" fill="white"/>
</g>
</svg>
