<svg xmlns="http://www.w3.org/2000/svg" width="108" height="18" fill="none"><defs/><path fill="#fff" fill-rule="evenodd" d="M103.8 2.7v14.7h-2V2.7H98V1h9.6v1.7h-3.8zm-8 8.7a3 3 0 01-1.5 1 6 6 0 01-2 .2 12 12 0 01-2.3-.2v5h-2.1V1.2a11 11 0 013.7-.4c1 0 1.8 0 2.4.3.7.2 1.2.5 1.6 1 .4.4.7 1 1 1.8l.2 2.7c0 1.2 0 2.1-.3 3-.1.7-.4 1.3-.8 1.8zm-1.3-6.9L94 3.2a2 2 0 00-1-.7l-1.4-.2H90V11h1.6c.6 0 1 0 1.4-.2a2 2 0 001-.7l.5-1.3.2-2.2c0-.8 0-1.5-.2-2zm-11.9 8.7h-4.7l-1 4.2h-2.2l4-16.4h3l4 16.4h-2l-1.1-4.2zm-2.3-9.8h-.1l-2 8.2h4l-1.9-8.2zM70.2 5.2H70l-3.4 10.1h-2L61 5.3H61l-.7 12.1h-2.1l1-16.4h2.5l3.8 11.3h.1L69.5 1H72l1 16.4h-2.1l-.7-12.2zM54.4 16c-.5.7-1 1.1-1.6 1.4-.6.3-1.3.4-2.1.4s-1.5-.1-2.2-.4c-.6-.3-1.1-.7-1.5-1.4-.5-.6-.8-1.5-1-2.6a20.6 20.6 0 010-8.2c.2-1 .5-2 1-2.6.4-.6 1-1 1.5-1.3.7-.3 1.4-.4 2.2-.4.8 0 1.5.1 2 .4.7.2 1.2.7 1.7 1.3.4.7.7 1.5 1 2.6.2 1.1.3 2.5.3 4.1 0 1.7-.1 3-.3 4.1-.3 1.1-.6 2-1 2.6zm-1-10.1c-.2-1-.4-1.7-.7-2.2-.3-.5-.6-.9-1-1.1-.3-.2-.7-.3-1-.3-.4 0-.8 0-1.1.3-.4.2-.7.6-1 1.1-.2.5-.5 1.2-.6 2.2a20.1 20.1 0 000 7c.1.8.4 1.5.6 2 .3.6.6 1 1 1.2.3.2.7.3 1 .3l1.2-.3 1-1.1.6-2.2.2-3.5c0-1.4 0-2.5-.2-3.4zM40.7 9.9h-5v7.5h-2V1h2v7.3h5V1h2.1v16.4h-2.1V10zm-11.2 7.5l-2.9-7-3 7h-2L25 9l-3.2-8H24l2.6 6.6L29.2 1h2.1l-3.2 8 3.6 8.4h-2.2zM12.3 1h8v1.7h-5.9V8h5.2v1.6h-5.2v6.1h5.9v1.6h-8V1zM6.6 17.4h-2V2.7H.7V1h9.6v1.7H6.6v14.7z" clip-rule="evenodd"/></svg>