<svg xmlns="http://www.w3.org/2000/svg" width="44" height="44" fill="none"><defs/><path fill="#212A3A" fill-rule="evenodd" d="M22.2 1.5c11.5 0 20.8 9 20.8 20.3 0 11.2-9.3 20.3-20.8 20.3A20.6 20.6 0 011.4 21.8c0-11.2 9.3-20.3 20.8-20.3z" clip-rule="evenodd"/><path fill="#fff" d="M24.5 25.7c1-.3 2.1 2 3.4 2.8 1 .6 1.7.5 1.7.5h3.3s1.7-.2 1-1.5c-.1-.1-.6-1-2.6-2.9s-1.8-1.6.7-4.9c1.6-2 2.2-3.2 2-3.7-.2-.6-1.3-.4-1.3-.4h-3.8c-.3 0-.7.1-.8.5 0 0-.6 1.6-1.4 2.9-1.7 2.8-2.3 3-2.6 2.8-.6-.5-.5-1.7-.5-2.5 0-2.8.4-3.9-.8-4.2L21 15c-1.3 0-2.4 0-3 .4-.5.2-.8.6-.6.6.2 0 .8.2 1 .6.5.5.4 1.7.4 1.7s.3 3.2-.5 3.6c-.5.2-1.2-.3-2.7-2.9l-1.3-2.7-.3-.4-.6-.2H9.8s-.5 0-.7.2c-.2.2 0 .7 0 .7s2.8 6.4 6 9.7c2.8 3 6.2 2.7 6.2 2.7h1.5s.4 0 .6-.3c.2-.2.2-.6.2-.6s0-2 1-2.3z"/></svg>